<mxfile host="Electron" modified="2024-09-09T20:03:45.183Z" agent="Mozilla/5.0 (Windows NT 10.0; Win64; x64) AppleWebKit/537.36 (KHTML, like Gecko) draw.io/21.1.2 Chrome/106.0.5249.199 Electron/21.4.3 Safari/537.36" etag="GUqmaLEwKA_1vOIbczPe" version="21.1.2" type="device">
  <diagram name="Page-1" id="0783ab3e-0a74-02c8-0abd-f7b4e66b4bec">
    <mxGraphModel dx="1687" dy="993" grid="1" gridSize="10" guides="1" tooltips="1" connect="1" arrows="1" fold="1" page="1" pageScale="1" pageWidth="2339" pageHeight="3300" background="none" math="0" shadow="0">
      <root>
        <mxCell id="0" />
        <mxCell id="1" parent="0" />
        <mxCell id="Kh3jKs6r-VNOBaE9r75T-157" value="" style="ellipse;whiteSpace=wrap;html=1;rounded=0;shadow=0;comic=0;labelBackgroundColor=none;strokeWidth=1;fillColor=#000000;fontFamily=Verdana;fontSize=12;align=center;" parent="1" vertex="1">
          <mxGeometry x="280.03" y="40" width="40" height="40" as="geometry" />
        </mxCell>
        <mxCell id="Kh3jKs6r-VNOBaE9r75T-158" value="" style="edgeStyle=orthogonalEdgeStyle;html=1;align=left;verticalAlign=bottom;endArrow=open;endSize=8;strokeColor=#000000;rounded=0;exitX=0.5;exitY=1;exitDx=0;exitDy=0;" parent="1" source="Nd0YQQq20hHKod8yLaoM-12" target="Kh3jKs6r-VNOBaE9r75T-159" edge="1">
          <mxGeometry x="-1" relative="1" as="geometry">
            <mxPoint x="300.03" y="200" as="targetPoint" />
            <mxPoint x="350.03" y="160" as="sourcePoint" />
          </mxGeometry>
        </mxCell>
        <mxCell id="Kh3jKs6r-VNOBaE9r75T-159" value="Anwendung aufrufen" style="rounded=1;whiteSpace=wrap;html=1;shadow=0;comic=0;labelBackgroundColor=none;strokeWidth=1;fontFamily=Verdana;fontSize=12;align=center;arcSize=50;" parent="1" vertex="1">
          <mxGeometry x="230.02999999999997" y="200" width="140" height="40" as="geometry" />
        </mxCell>
        <mxCell id="Kh3jKs6r-VNOBaE9r75T-160" value="Vorgang im Cache?" style="rhombus;whiteSpace=wrap;html=1;" parent="1" vertex="1">
          <mxGeometry x="260.03" y="280" width="80" height="40" as="geometry" />
        </mxCell>
        <mxCell id="Kh3jKs6r-VNOBaE9r75T-161" value="Ja" style="edgeStyle=orthogonalEdgeStyle;html=1;align=left;verticalAlign=bottom;endArrow=open;endSize=8;strokeColor=#000000;rounded=0;entryX=0.5;entryY=0;entryDx=0;entryDy=0;" parent="1" source="Kh3jKs6r-VNOBaE9r75T-160" target="Kh3jKs6r-VNOBaE9r75T-165" edge="1">
          <mxGeometry x="-1" relative="1" as="geometry">
            <mxPoint x="420.0300000000002" y="300" as="targetPoint" />
          </mxGeometry>
        </mxCell>
        <mxCell id="Kh3jKs6r-VNOBaE9r75T-162" value="Nein" style="edgeStyle=orthogonalEdgeStyle;html=1;align=left;verticalAlign=top;endArrow=open;endSize=8;strokeColor=#000000;rounded=0;" parent="1" source="Kh3jKs6r-VNOBaE9r75T-160" target="Kh3jKs6r-VNOBaE9r75T-171" edge="1">
          <mxGeometry x="-1" relative="1" as="geometry">
            <mxPoint x="300.03" y="360" as="targetPoint" />
          </mxGeometry>
        </mxCell>
        <mxCell id="Kh3jKs6r-VNOBaE9r75T-163" value="" style="edgeStyle=orthogonalEdgeStyle;html=1;align=left;verticalAlign=bottom;endArrow=open;endSize=8;strokeColor=#000000;rounded=0;exitX=0.5;exitY=1;exitDx=0;exitDy=0;entryX=0.5;entryY=0;entryDx=0;entryDy=0;" parent="1" source="Kh3jKs6r-VNOBaE9r75T-159" target="Kh3jKs6r-VNOBaE9r75T-160" edge="1">
          <mxGeometry x="-1" relative="1" as="geometry">
            <mxPoint x="270.03" y="310" as="targetPoint" />
            <mxPoint x="170.02999999999997" y="310" as="sourcePoint" />
          </mxGeometry>
        </mxCell>
        <mxCell id="Kh3jKs6r-VNOBaE9r75T-164" value="Objektdefintion Ã¼bergeben" style="rounded=1;whiteSpace=wrap;html=1;shadow=0;comic=0;labelBackgroundColor=none;strokeWidth=1;fontFamily=Verdana;fontSize=12;align=center;arcSize=50;" parent="1" vertex="1">
          <mxGeometry x="230.02999999999997" y="440" width="140" height="40" as="geometry" />
        </mxCell>
        <mxCell id="Kh3jKs6r-VNOBaE9r75T-165" value="Form-Daten aus dem Cache laden" style="rounded=1;whiteSpace=wrap;html=1;shadow=0;comic=0;labelBackgroundColor=none;strokeWidth=1;fontFamily=Verdana;fontSize=12;align=center;arcSize=50;" parent="1" vertex="1">
          <mxGeometry x="410.0300000000001" y="440" width="140" height="40" as="geometry" />
        </mxCell>
        <mxCell id="Kh3jKs6r-VNOBaE9r75T-166" value="Eingabe valide?" style="rhombus;whiteSpace=wrap;html=1;" parent="1" vertex="1">
          <mxGeometry x="260.03" y="520" width="80" height="40" as="geometry" />
        </mxCell>
        <mxCell id="Kh3jKs6r-VNOBaE9r75T-167" value="Nein" style="edgeStyle=orthogonalEdgeStyle;html=1;align=left;verticalAlign=bottom;endArrow=open;endSize=8;strokeColor=#000000;rounded=0;entryX=1;entryY=0.5;entryDx=0;entryDy=0;" parent="1" source="Kh3jKs6r-VNOBaE9r75T-166" target="Kh3jKs6r-VNOBaE9r75T-170" edge="1">
          <mxGeometry x="-0.25" relative="1" as="geometry">
            <mxPoint x="440.0300000000001" y="540" as="targetPoint" />
            <mxPoint as="offset" />
          </mxGeometry>
        </mxCell>
        <mxCell id="Kh3jKs6r-VNOBaE9r75T-168" value="Ja" style="edgeStyle=orthogonalEdgeStyle;html=1;align=left;verticalAlign=top;endArrow=open;endSize=8;strokeColor=#000000;rounded=0;" parent="1" source="Kh3jKs6r-VNOBaE9r75T-166" target="Kh3jKs6r-VNOBaE9r75T-174" edge="1">
          <mxGeometry x="-1" relative="1" as="geometry">
            <mxPoint x="300.03" y="600" as="targetPoint" />
          </mxGeometry>
        </mxCell>
        <mxCell id="Kh3jKs6r-VNOBaE9r75T-169" value="" style="edgeStyle=orthogonalEdgeStyle;html=1;align=left;verticalAlign=bottom;endArrow=open;endSize=8;strokeColor=#000000;rounded=0;exitX=0.5;exitY=1;exitDx=0;exitDy=0;entryX=0.5;entryY=0;entryDx=0;entryDy=0;" parent="1" source="Kh3jKs6r-VNOBaE9r75T-164" target="Kh3jKs6r-VNOBaE9r75T-166" edge="1">
          <mxGeometry x="-1" relative="1" as="geometry">
            <mxPoint x="230.02999999999997" y="530" as="targetPoint" />
            <mxPoint x="130.02999999999997" y="530" as="sourcePoint" />
          </mxGeometry>
        </mxCell>
        <mxCell id="Kh3jKs6r-VNOBaE9r75T-170" value="Fehler anzeigen" style="rounded=1;whiteSpace=wrap;html=1;shadow=0;comic=0;labelBackgroundColor=none;strokeWidth=1;fontFamily=Verdana;fontSize=12;align=center;arcSize=50;" parent="1" vertex="1">
          <mxGeometry x="60.02999999999997" y="520" width="140" height="40" as="geometry" />
        </mxCell>
        <mxCell id="Kh3jKs6r-VNOBaE9r75T-171" value="" style="rhombus;whiteSpace=wrap;html=1;" parent="1" vertex="1">
          <mxGeometry x="280.03" y="360" width="40" height="40" as="geometry" />
        </mxCell>
        <mxCell id="Kh3jKs6r-VNOBaE9r75T-172" value="" style="edgeStyle=orthogonalEdgeStyle;html=1;align=left;verticalAlign=bottom;endArrow=open;endSize=8;strokeColor=#000000;rounded=0;exitX=0.5;exitY=0;exitDx=0;exitDy=0;entryX=0;entryY=0.5;entryDx=0;entryDy=0;" parent="1" source="Kh3jKs6r-VNOBaE9r75T-170" target="Kh3jKs6r-VNOBaE9r75T-171" edge="1">
          <mxGeometry x="-1" relative="1" as="geometry">
            <mxPoint x="70.02999999999997" y="370" as="targetPoint" />
            <mxPoint x="-29.970000000000027" y="370" as="sourcePoint" />
          </mxGeometry>
        </mxCell>
        <mxCell id="Kh3jKs6r-VNOBaE9r75T-173" value="" style="edgeStyle=orthogonalEdgeStyle;html=1;align=left;verticalAlign=bottom;endArrow=open;endSize=8;strokeColor=#000000;rounded=0;exitX=0.5;exitY=1;exitDx=0;exitDy=0;entryX=0.5;entryY=0;entryDx=0;entryDy=0;" parent="1" source="Kh3jKs6r-VNOBaE9r75T-171" target="Kh3jKs6r-VNOBaE9r75T-164" edge="1">
          <mxGeometry x="-1" relative="1" as="geometry">
            <mxPoint x="430.0300000000001" y="450" as="targetPoint" />
            <mxPoint x="330.03" y="450" as="sourcePoint" />
          </mxGeometry>
        </mxCell>
        <mxCell id="Kh3jKs6r-VNOBaE9r75T-174" value="" style="rhombus;whiteSpace=wrap;html=1;" parent="1" vertex="1">
          <mxGeometry x="280.03" y="600" width="40" height="40" as="geometry" />
        </mxCell>
        <mxCell id="Kh3jKs6r-VNOBaE9r75T-175" value="Mat-Form generieren" style="rounded=1;whiteSpace=wrap;html=1;shadow=0;comic=0;labelBackgroundColor=none;strokeWidth=1;fontFamily=Verdana;fontSize=12;align=center;arcSize=50;" parent="1" vertex="1">
          <mxGeometry x="230.02999999999997" y="680" width="140" height="40" as="geometry" />
        </mxCell>
        <mxCell id="Kh3jKs6r-VNOBaE9r75T-176" value="" style="edgeStyle=orthogonalEdgeStyle;html=1;align=left;verticalAlign=bottom;endArrow=open;endSize=8;strokeColor=#000000;rounded=0;exitX=0.5;exitY=1;exitDx=0;exitDy=0;entryX=0.5;entryY=0;entryDx=0;entryDy=0;" parent="1" source="Kh3jKs6r-VNOBaE9r75T-174" target="Kh3jKs6r-VNOBaE9r75T-175" edge="1">
          <mxGeometry x="-1" relative="1" as="geometry">
            <mxPoint x="550.0300000000001" y="680" as="targetPoint" />
            <mxPoint x="450.0300000000001" y="680" as="sourcePoint" />
          </mxGeometry>
        </mxCell>
        <mxCell id="Kh3jKs6r-VNOBaE9r75T-177" value="" style="edgeStyle=orthogonalEdgeStyle;html=1;align=left;verticalAlign=bottom;endArrow=open;endSize=8;strokeColor=#000000;rounded=0;exitX=0.5;exitY=1;exitDx=0;exitDy=0;entryX=1;entryY=0.5;entryDx=0;entryDy=0;" parent="1" source="Kh3jKs6r-VNOBaE9r75T-165" target="Kh3jKs6r-VNOBaE9r75T-174" edge="1">
          <mxGeometry x="-1" relative="1" as="geometry">
            <mxPoint x="870.0300000000001" y="600" as="targetPoint" />
            <mxPoint x="770.0300000000001" y="600" as="sourcePoint" />
          </mxGeometry>
        </mxCell>
        <mxCell id="Kh3jKs6r-VNOBaE9r75T-178" value="" style="whiteSpace=wrap;html=1;rounded=0;shadow=0;comic=0;labelBackgroundColor=none;strokeWidth=1;fillColor=#000000;fontFamily=Verdana;fontSize=12;align=center;rotation=0;" parent="1" vertex="1">
          <mxGeometry x="200.02999999999997" y="760" width="200" height="10" as="geometry" />
        </mxCell>
        <mxCell id="Kh3jKs6r-VNOBaE9r75T-180" value="" style="edgeStyle=orthogonalEdgeStyle;html=1;align=left;verticalAlign=bottom;endArrow=open;endSize=8;strokeColor=#000000;rounded=0;exitX=0.75;exitY=1.044;exitDx=0;exitDy=0;exitPerimeter=0;entryX=0.5;entryY=0;entryDx=0;entryDy=0;" parent="1" source="Kh3jKs6r-VNOBaE9r75T-178" target="Kh3jKs6r-VNOBaE9r75T-183" edge="1">
          <mxGeometry x="-1" relative="1" as="geometry">
            <mxPoint x="350.03" y="960" as="targetPoint" />
            <mxPoint x="360.03" y="940" as="sourcePoint" />
          </mxGeometry>
        </mxCell>
        <mxCell id="Kh3jKs6r-VNOBaE9r75T-181" value="" style="edgeStyle=orthogonalEdgeStyle;html=1;align=left;verticalAlign=bottom;endArrow=open;endSize=8;strokeColor=#000000;rounded=0;exitX=0.5;exitY=1;exitDx=0;exitDy=0;entryX=0.5;entryY=0;entryDx=0;entryDy=0;" parent="1" source="Kh3jKs6r-VNOBaE9r75T-175" target="Kh3jKs6r-VNOBaE9r75T-178" edge="1">
          <mxGeometry x="-1" relative="1" as="geometry">
            <mxPoint x="180.02999999999997" y="790" as="targetPoint" />
            <mxPoint x="80.02999999999997" y="790" as="sourcePoint" />
          </mxGeometry>
        </mxCell>
        <mxCell id="Kh3jKs6r-VNOBaE9r75T-182" value="Zur Vorschau navigieren" style="rounded=1;whiteSpace=wrap;html=1;shadow=0;comic=0;labelBackgroundColor=none;strokeWidth=1;fontFamily=Verdana;fontSize=12;align=center;arcSize=50;" parent="1" vertex="1">
          <mxGeometry x="80.02999999999997" y="880" width="140" height="40" as="geometry" />
        </mxCell>
        <mxCell id="Kh3jKs6r-VNOBaE9r75T-183" value="Form-Daten im Cache speichern" style="rounded=1;whiteSpace=wrap;html=1;shadow=0;comic=0;labelBackgroundColor=none;strokeWidth=1;fontFamily=Verdana;fontSize=12;align=center;arcSize=50;" parent="1" vertex="1">
          <mxGeometry x="280.03" y="880" width="140" height="40" as="geometry" />
        </mxCell>
        <mxCell id="Kh3jKs6r-VNOBaE9r75T-184" value="" style="whiteSpace=wrap;html=1;rounded=0;shadow=0;comic=0;labelBackgroundColor=none;strokeWidth=1;fillColor=#000000;fontFamily=Verdana;fontSize=12;align=center;rotation=0;" parent="1" vertex="1">
          <mxGeometry x="200.02999999999997" y="1040" width="200" height="10" as="geometry" />
        </mxCell>
        <mxCell id="Kh3jKs6r-VNOBaE9r75T-185" value="" style="edgeStyle=orthogonalEdgeStyle;html=1;align=left;verticalAlign=bottom;endArrow=open;endSize=8;strokeColor=#000000;rounded=0;exitX=0.5;exitY=1;exitDx=0;exitDy=0;" parent="1" source="Kh3jKs6r-VNOBaE9r75T-184" target="Kh3jKs6r-VNOBaE9r75T-188" edge="1">
          <mxGeometry x="-1" relative="1" as="geometry">
            <mxPoint x="300.03" y="1080" as="targetPoint" />
            <mxPoint x="290.03" y="1110" as="sourcePoint" />
          </mxGeometry>
        </mxCell>
        <mxCell id="Kh3jKs6r-VNOBaE9r75T-187" value="" style="edgeStyle=orthogonalEdgeStyle;html=1;align=left;verticalAlign=bottom;endArrow=open;endSize=8;strokeColor=#000000;rounded=0;exitX=0.5;exitY=1;exitDx=0;exitDy=0;entryX=0.75;entryY=0;entryDx=0;entryDy=0;" parent="1" source="Kh3jKs6r-VNOBaE9r75T-183" target="Kh3jKs6r-VNOBaE9r75T-184" edge="1">
          <mxGeometry x="-1" relative="1" as="geometry">
            <mxPoint x="590.0300000000001" y="1070" as="targetPoint" />
            <mxPoint x="490.0300000000001" y="1070" as="sourcePoint" />
          </mxGeometry>
        </mxCell>
        <mxCell id="Kh3jKs6r-VNOBaE9r75T-188" value="Aktion" style="rhombus;whiteSpace=wrap;html=1;" parent="1" vertex="1">
          <mxGeometry x="260.03" y="1080" width="80" height="40" as="geometry" />
        </mxCell>
        <mxCell id="Kh3jKs6r-VNOBaE9r75T-191" value="A" style="ellipse;whiteSpace=wrap;html=1;aspect=fixed;" parent="1" vertex="1">
          <mxGeometry x="160.0300000000001" y="120" width="40" height="40" as="geometry" />
        </mxCell>
        <mxCell id="Kh3jKs6r-VNOBaE9r75T-192" value="" style="edgeStyle=orthogonalEdgeStyle;html=1;align=left;verticalAlign=bottom;endArrow=open;endSize=8;strokeColor=#000000;rounded=0;entryX=0;entryY=0.5;entryDx=0;entryDy=0;exitX=1;exitY=0.5;exitDx=0;exitDy=0;" parent="1" source="Kh3jKs6r-VNOBaE9r75T-191" target="Nd0YQQq20hHKod8yLaoM-12" edge="1">
          <mxGeometry x="-1" relative="1" as="geometry">
            <mxPoint x="180.0300000000002" y="200" as="targetPoint" />
            <mxPoint x="130.0300000000001" y="130" as="sourcePoint" />
          </mxGeometry>
        </mxCell>
        <mxCell id="Kh3jKs6r-VNOBaE9r75T-195" value="Form bearbeiten" style="rounded=1;whiteSpace=wrap;html=1;shadow=0;comic=0;labelBackgroundColor=none;strokeWidth=1;fontFamily=Verdana;fontSize=12;align=center;arcSize=50;" parent="1" vertex="1">
          <mxGeometry x="50.02999999999997" y="1160" width="140" height="40" as="geometry" />
        </mxCell>
        <mxCell id="Kh3jKs6r-VNOBaE9r75T-196" value="Quellcode exportieren" style="rounded=1;whiteSpace=wrap;html=1;shadow=0;comic=0;labelBackgroundColor=none;strokeWidth=1;fontFamily=Verdana;fontSize=12;align=center;arcSize=50;" parent="1" vertex="1">
          <mxGeometry x="230.02999999999997" y="1160" width="140" height="40" as="geometry" />
        </mxCell>
        <mxCell id="Kh3jKs6r-VNOBaE9r75T-197" value="Vorgang abbrechen" style="rounded=1;whiteSpace=wrap;html=1;shadow=0;comic=0;labelBackgroundColor=none;strokeWidth=1;fontFamily=Verdana;fontSize=12;align=center;arcSize=50;" parent="1" vertex="1">
          <mxGeometry x="410.0300000000001" y="1160" width="140" height="40" as="geometry" />
        </mxCell>
        <mxCell id="Kh3jKs6r-VNOBaE9r75T-198" value="Form-Daten aus Cache lÃ¶schen" style="rounded=1;whiteSpace=wrap;html=1;shadow=0;comic=0;labelBackgroundColor=none;strokeWidth=1;fontFamily=Verdana;fontSize=12;align=center;arcSize=50;" parent="1" vertex="1">
          <mxGeometry x="320.0300000000001" y="1320" width="140" height="40" as="geometry" />
        </mxCell>
        <mxCell id="Kh3jKs6r-VNOBaE9r75T-199" value="" style="edgeStyle=orthogonalEdgeStyle;html=1;align=left;verticalAlign=bottom;endArrow=open;endSize=8;strokeColor=#000000;rounded=0;exitX=0.5;exitY=1;exitDx=0;exitDy=0;entryX=1;entryY=0.5;entryDx=0;entryDy=0;" parent="1" source="Kh3jKs6r-VNOBaE9r75T-197" target="5" edge="1">
          <mxGeometry x="-1" relative="1" as="geometry">
            <mxPoint x="720.0300000000001" y="1260" as="targetPoint" />
            <mxPoint x="620.0300000000001" y="1260" as="sourcePoint" />
          </mxGeometry>
        </mxCell>
        <mxCell id="Kh3jKs6r-VNOBaE9r75T-201" value="" style="edgeStyle=orthogonalEdgeStyle;html=1;align=left;verticalAlign=bottom;endArrow=open;endSize=8;strokeColor=#000000;rounded=0;exitX=0.5;exitY=1;exitDx=0;exitDy=0;entryX=0;entryY=0.5;entryDx=0;entryDy=0;" parent="1" source="Kh3jKs6r-VNOBaE9r75T-196" target="5" edge="1">
          <mxGeometry x="-1" relative="1" as="geometry">
            <mxPoint x="380" y="1240" as="targetPoint" />
            <mxPoint x="140.02999999999997" y="1240" as="sourcePoint" />
          </mxGeometry>
        </mxCell>
        <mxCell id="Kh3jKs6r-VNOBaE9r75T-202" value="Fertig" style="edgeStyle=orthogonalEdgeStyle;html=1;align=left;verticalAlign=bottom;endArrow=open;endSize=8;strokeColor=#000000;rounded=0;entryX=0.5;entryY=0;entryDx=0;entryDy=0;exitX=0.5;exitY=1;exitDx=0;exitDy=0;" parent="1" source="Kh3jKs6r-VNOBaE9r75T-188" target="Kh3jKs6r-VNOBaE9r75T-196" edge="1">
          <mxGeometry relative="1" as="geometry">
            <mxPoint x="290.03" y="1130" as="targetPoint" />
            <mxPoint x="190.02999999999997" y="1130" as="sourcePoint" />
            <mxPoint as="offset" />
          </mxGeometry>
        </mxCell>
        <mxCell id="Kh3jKs6r-VNOBaE9r75T-203" value="Anpassung" style="edgeStyle=orthogonalEdgeStyle;html=1;align=left;verticalAlign=bottom;endArrow=open;endSize=8;strokeColor=#000000;rounded=0;entryX=0.5;entryY=0;entryDx=0;entryDy=0;exitX=0;exitY=0.5;exitDx=0;exitDy=0;" parent="1" source="Kh3jKs6r-VNOBaE9r75T-188" target="Kh3jKs6r-VNOBaE9r75T-195" edge="1">
          <mxGeometry x="-0.3" relative="1" as="geometry">
            <mxPoint x="230.02999999999997" y="1100" as="targetPoint" />
            <mxPoint x="130.02999999999997" y="1100" as="sourcePoint" />
            <mxPoint as="offset" />
          </mxGeometry>
        </mxCell>
        <mxCell id="Kh3jKs6r-VNOBaE9r75T-204" value="Abbruch" style="edgeStyle=orthogonalEdgeStyle;html=1;align=left;verticalAlign=bottom;endArrow=open;endSize=8;strokeColor=#000000;rounded=0;exitX=1;exitY=0.5;exitDx=0;exitDy=0;entryX=0.5;entryY=0;entryDx=0;entryDy=0;" parent="1" source="Kh3jKs6r-VNOBaE9r75T-188" target="Kh3jKs6r-VNOBaE9r75T-197" edge="1">
          <mxGeometry x="-0.931" relative="1" as="geometry">
            <mxPoint x="500.0300000000001" y="1090" as="targetPoint" />
            <mxPoint x="400.0300000000001" y="1090" as="sourcePoint" />
            <mxPoint as="offset" />
          </mxGeometry>
        </mxCell>
        <mxCell id="Kh3jKs6r-VNOBaE9r75T-205" value="" style="edgeStyle=orthogonalEdgeStyle;html=1;align=left;verticalAlign=bottom;endArrow=open;endSize=8;strokeColor=#000000;rounded=0;entryX=0;entryY=0.5;entryDx=0;entryDy=0;exitX=0;exitY=0.5;exitDx=0;exitDy=0;" parent="1" source="Kh3jKs6r-VNOBaE9r75T-195" target="Kh3jKs6r-VNOBaE9r75T-174" edge="1">
          <mxGeometry x="-1" relative="1" as="geometry">
            <mxPoint x="-19.970000000000027" y="760" as="targetPoint" />
            <mxPoint x="-119.97000000000003" y="760" as="sourcePoint" />
          </mxGeometry>
        </mxCell>
        <mxCell id="Kh3jKs6r-VNOBaE9r75T-209" value="Vorschau sichtbar?" style="rhombus;whiteSpace=wrap;html=1;" parent="1" vertex="1">
          <mxGeometry x="210.02999999999997" y="800" width="80" height="40" as="geometry" />
        </mxCell>
        <mxCell id="Kh3jKs6r-VNOBaE9r75T-210" value="Nein" style="edgeStyle=orthogonalEdgeStyle;html=1;align=left;verticalAlign=bottom;endArrow=open;endSize=8;strokeColor=#000000;rounded=0;entryX=0.5;entryY=0;entryDx=0;entryDy=0;exitX=0;exitY=0.5;exitDx=0;exitDy=0;" parent="1" source="Kh3jKs6r-VNOBaE9r75T-209" target="Kh3jKs6r-VNOBaE9r75T-182" edge="1">
          <mxGeometry x="-0.3349" relative="1" as="geometry">
            <mxPoint x="380.03" y="870" as="targetPoint" />
            <mxPoint as="offset" />
          </mxGeometry>
        </mxCell>
        <mxCell id="Kh3jKs6r-VNOBaE9r75T-211" value="Ja" style="edgeStyle=orthogonalEdgeStyle;html=1;align=left;verticalAlign=top;endArrow=open;endSize=8;strokeColor=#000000;rounded=0;entryX=0.5;entryY=0;entryDx=0;entryDy=0;" parent="1" source="Kh3jKs6r-VNOBaE9r75T-209" target="Kh3jKs6r-VNOBaE9r75T-213" edge="1">
          <mxGeometry x="-1" relative="1" as="geometry">
            <mxPoint x="250.02999999999997" y="950" as="targetPoint" />
            <mxPoint as="offset" />
          </mxGeometry>
        </mxCell>
        <mxCell id="Kh3jKs6r-VNOBaE9r75T-212" value="" style="edgeStyle=orthogonalEdgeStyle;html=1;align=left;verticalAlign=bottom;endArrow=open;endSize=8;strokeColor=#000000;rounded=0;exitX=0.25;exitY=1;exitDx=0;exitDy=0;entryX=0.5;entryY=0;entryDx=0;entryDy=0;" parent="1" source="Kh3jKs6r-VNOBaE9r75T-178" target="Kh3jKs6r-VNOBaE9r75T-209" edge="1">
          <mxGeometry x="-1" relative="1" as="geometry">
            <mxPoint x="530.0300000000001" y="880" as="targetPoint" />
            <mxPoint x="430.0300000000001" y="880" as="sourcePoint" />
          </mxGeometry>
        </mxCell>
        <mxCell id="Kh3jKs6r-VNOBaE9r75T-213" value="" style="rhombus;whiteSpace=wrap;html=1;" parent="1" vertex="1">
          <mxGeometry x="230.02999999999997" y="960" width="40" height="40" as="geometry" />
        </mxCell>
        <mxCell id="Kh3jKs6r-VNOBaE9r75T-214" value="" style="edgeStyle=orthogonalEdgeStyle;html=1;align=left;verticalAlign=bottom;endArrow=open;endSize=8;strokeColor=#000000;rounded=0;exitX=0.5;exitY=1;exitDx=0;exitDy=0;entryX=0;entryY=0.5;entryDx=0;entryDy=0;" parent="1" source="Kh3jKs6r-VNOBaE9r75T-182" target="Kh3jKs6r-VNOBaE9r75T-213" edge="1">
          <mxGeometry x="-1" relative="1" as="geometry">
            <mxPoint x="220.02999999999997" y="970" as="targetPoint" />
            <mxPoint x="120.02999999999997" y="970" as="sourcePoint" />
          </mxGeometry>
        </mxCell>
        <mxCell id="Kh3jKs6r-VNOBaE9r75T-215" value="" style="edgeStyle=orthogonalEdgeStyle;html=1;align=left;verticalAlign=bottom;endArrow=open;endSize=8;strokeColor=#000000;rounded=0;entryX=0.25;entryY=0;entryDx=0;entryDy=0;exitX=0.5;exitY=1;exitDx=0;exitDy=0;" parent="1" source="Kh3jKs6r-VNOBaE9r75T-213" target="Kh3jKs6r-VNOBaE9r75T-184" edge="1">
          <mxGeometry x="-1" relative="1" as="geometry">
            <mxPoint x="-19.970000000000027" y="960" as="targetPoint" />
            <mxPoint x="270.03" y="1010" as="sourcePoint" />
          </mxGeometry>
        </mxCell>
        <mxCell id="Kh3jKs6r-VNOBaE9r75T-218" value="In die Einstellungen navigieren" style="shape=mxgraph.sysml.accEvent;flipH=1;whiteSpace=wrap;align=center;html=1;direction=west;" parent="1" vertex="1">
          <mxGeometry x="780" y="160" width="140" height="40" as="geometry" />
        </mxCell>
        <mxCell id="Kh3jKs6r-VNOBaE9r75T-219" value="Einstellungen kÃ¶nnen jederzeit geÃ¶ffnet werden" style="shape=note2;boundedLbl=1;whiteSpace=wrap;html=1;size=25;verticalAlign=top;align=center;" parent="1" vertex="1">
          <mxGeometry x="880" y="40" width="110" height="80" as="geometry" />
        </mxCell>
        <mxCell id="Kh3jKs6r-VNOBaE9r75T-220" value="" style="endArrow=none;dashed=1;html=1;rounded=0;exitX=0.5;exitY=1;exitDx=0;exitDy=0;entryX=0;entryY=1;entryDx=0;entryDy=0;entryPerimeter=0;exitPerimeter=0;" parent="1" source="Kh3jKs6r-VNOBaE9r75T-218" target="Kh3jKs6r-VNOBaE9r75T-219" edge="1">
          <mxGeometry width="50" height="50" relative="1" as="geometry">
            <mxPoint x="823" y="80" as="sourcePoint" />
            <mxPoint x="910" y="59" as="targetPoint" />
          </mxGeometry>
        </mxCell>
        <mxCell id="Kh3jKs6r-VNOBaE9r75T-221" value="Config im Cache?" style="rhombus;whiteSpace=wrap;html=1;" parent="1" vertex="1">
          <mxGeometry x="980" y="160" width="80" height="40" as="geometry" />
        </mxCell>
        <mxCell id="Kh3jKs6r-VNOBaE9r75T-222" value="Ja" style="edgeStyle=orthogonalEdgeStyle;html=1;align=left;verticalAlign=bottom;endArrow=open;endSize=8;strokeColor=#000000;rounded=0;entryX=0;entryY=0.5;entryDx=0;entryDy=0;" parent="1" source="Kh3jKs6r-VNOBaE9r75T-221" target="Kh3jKs6r-VNOBaE9r75T-225" edge="1">
          <mxGeometry x="-1" relative="1" as="geometry">
            <mxPoint x="1120" y="180" as="targetPoint" />
          </mxGeometry>
        </mxCell>
        <mxCell id="Kh3jKs6r-VNOBaE9r75T-223" value="Nein" style="edgeStyle=orthogonalEdgeStyle;html=1;align=left;verticalAlign=top;endArrow=open;endSize=8;strokeColor=#000000;rounded=0;" parent="1" source="Kh3jKs6r-VNOBaE9r75T-221" edge="1">
          <mxGeometry x="-1" relative="1" as="geometry">
            <mxPoint x="1020" y="240" as="targetPoint" />
          </mxGeometry>
        </mxCell>
        <mxCell id="Kh3jKs6r-VNOBaE9r75T-224" value="" style="edgeStyle=orthogonalEdgeStyle;html=1;align=left;verticalAlign=bottom;endArrow=open;endSize=8;strokeColor=#000000;rounded=0;entryX=0;entryY=0.5;entryDx=0;entryDy=0;exitX=1;exitY=0.5;exitDx=0;exitDy=0;exitPerimeter=0;" parent="1" source="Kh3jKs6r-VNOBaE9r75T-218" target="Kh3jKs6r-VNOBaE9r75T-221" edge="1">
          <mxGeometry x="-1" relative="1" as="geometry">
            <mxPoint x="1010" y="250" as="targetPoint" />
            <mxPoint x="910" y="250" as="sourcePoint" />
          </mxGeometry>
        </mxCell>
        <mxCell id="Kh3jKs6r-VNOBaE9r75T-225" value="Config aus Cache laden" style="rounded=1;whiteSpace=wrap;html=1;shadow=0;comic=0;labelBackgroundColor=none;strokeWidth=1;fontFamily=Verdana;fontSize=12;align=center;arcSize=50;" parent="1" vertex="1">
          <mxGeometry x="1120" y="160" width="140" height="40" as="geometry" />
        </mxCell>
        <mxCell id="Kh3jKs6r-VNOBaE9r75T-226" value="" style="rhombus;whiteSpace=wrap;html=1;" parent="1" vertex="1">
          <mxGeometry x="1000" y="240" width="40" height="40" as="geometry" />
        </mxCell>
        <mxCell id="Kh3jKs6r-VNOBaE9r75T-227" value="" style="edgeStyle=orthogonalEdgeStyle;html=1;align=left;verticalAlign=bottom;endArrow=open;endSize=8;strokeColor=#000000;rounded=0;exitX=0.5;exitY=1;exitDx=0;exitDy=0;entryX=1;entryY=0.5;entryDx=0;entryDy=0;" parent="1" source="Kh3jKs6r-VNOBaE9r75T-225" target="Kh3jKs6r-VNOBaE9r75T-226" edge="1">
          <mxGeometry x="-1" relative="1" as="geometry">
            <mxPoint x="1160" y="280" as="targetPoint" />
            <mxPoint x="1060" y="280" as="sourcePoint" />
          </mxGeometry>
        </mxCell>
        <mxCell id="Kh3jKs6r-VNOBaE9r75T-229" value="" style="edgeStyle=orthogonalEdgeStyle;html=1;align=left;verticalAlign=bottom;endArrow=open;endSize=8;strokeColor=#000000;rounded=0;exitX=0.5;exitY=1;exitDx=0;exitDy=0;" parent="1" source="Kh3jKs6r-VNOBaE9r75T-226" target="Kh3jKs6r-VNOBaE9r75T-230" edge="1">
          <mxGeometry x="-1" relative="1" as="geometry">
            <mxPoint x="1020" y="320" as="targetPoint" />
            <mxPoint x="830" y="280" as="sourcePoint" />
          </mxGeometry>
        </mxCell>
        <mxCell id="Kh3jKs6r-VNOBaE9r75T-230" value="Auswahl" style="rhombus;whiteSpace=wrap;html=1;" parent="1" vertex="1">
          <mxGeometry x="980" y="320" width="80" height="40" as="geometry" />
        </mxCell>
        <mxCell id="Kh3jKs6r-VNOBaE9r75T-232" value="Einstellungen importieren" style="rounded=1;whiteSpace=wrap;html=1;shadow=0;comic=0;labelBackgroundColor=none;strokeWidth=1;fontFamily=Verdana;fontSize=12;align=center;arcSize=50;" parent="1" vertex="1">
          <mxGeometry x="860" y="400" width="140" height="40" as="geometry" />
        </mxCell>
        <mxCell id="Kh3jKs6r-VNOBaE9r75T-233" value="Einstellungen exportieren" style="rounded=1;whiteSpace=wrap;html=1;shadow=0;comic=0;labelBackgroundColor=none;strokeWidth=1;fontFamily=Verdana;fontSize=12;align=center;arcSize=50;" parent="1" vertex="1">
          <mxGeometry x="680" y="400" width="140" height="40" as="geometry" />
        </mxCell>
        <mxCell id="Kh3jKs6r-VNOBaE9r75T-234" value="Einstellungen bearbeiten" style="rounded=1;whiteSpace=wrap;html=1;shadow=0;comic=0;labelBackgroundColor=none;strokeWidth=1;fontFamily=Verdana;fontSize=12;align=center;arcSize=50;" parent="1" vertex="1">
          <mxGeometry x="1040" y="400" width="140" height="40" as="geometry" />
        </mxCell>
        <mxCell id="Kh3jKs6r-VNOBaE9r75T-235" value="Einstellungen zurÃ¼cksetzen" style="rounded=1;whiteSpace=wrap;html=1;shadow=0;comic=0;labelBackgroundColor=none;strokeWidth=1;fontFamily=Verdana;fontSize=12;align=center;arcSize=50;" parent="1" vertex="1">
          <mxGeometry x="1220" y="400" width="140" height="40" as="geometry" />
        </mxCell>
        <mxCell id="Kh3jKs6r-VNOBaE9r75T-243" value="Weiter?" style="rhombus;whiteSpace=wrap;html=1;" parent="1" vertex="1">
          <mxGeometry x="980" y="720" width="80" height="40" as="geometry" />
        </mxCell>
        <mxCell id="Kh3jKs6r-VNOBaE9r75T-244" value="Ja" style="edgeStyle=orthogonalEdgeStyle;html=1;align=left;verticalAlign=bottom;endArrow=open;endSize=8;strokeColor=#000000;rounded=0;" parent="1" source="Kh3jKs6r-VNOBaE9r75T-243" target="Kh3jKs6r-VNOBaE9r75T-268" edge="1">
          <mxGeometry x="-0.4" relative="1" as="geometry">
            <mxPoint x="880.0000000000005" y="740" as="targetPoint" />
            <Array as="points" />
            <mxPoint as="offset" />
          </mxGeometry>
        </mxCell>
        <mxCell id="Kh3jKs6r-VNOBaE9r75T-245" value="Nein" style="edgeStyle=orthogonalEdgeStyle;html=1;align=left;verticalAlign=top;endArrow=open;endSize=8;strokeColor=#000000;rounded=0;" parent="1" source="Kh3jKs6r-VNOBaE9r75T-243" target="Kh3jKs6r-VNOBaE9r75T-361" edge="1">
          <mxGeometry x="-1" y="14" relative="1" as="geometry">
            <mxPoint x="1020" y="800" as="targetPoint" />
            <mxPoint x="-4" y="-10" as="offset" />
          </mxGeometry>
        </mxCell>
        <mxCell id="Kh3jKs6r-VNOBaE9r75T-246" value="" style="edgeStyle=orthogonalEdgeStyle;html=1;align=left;verticalAlign=bottom;endArrow=open;endSize=8;strokeColor=#000000;rounded=0;entryX=0.5;entryY=0;entryDx=0;entryDy=0;exitX=0;exitY=0.5;exitDx=0;exitDy=0;" parent="1" source="Kh3jKs6r-VNOBaE9r75T-230" target="Kh3jKs6r-VNOBaE9r75T-233" edge="1">
          <mxGeometry x="-1" relative="1" as="geometry">
            <mxPoint x="850" y="290" as="targetPoint" />
            <mxPoint x="750" y="290" as="sourcePoint" />
          </mxGeometry>
        </mxCell>
        <mxCell id="Kh3jKs6r-VNOBaE9r75T-247" value="" style="edgeStyle=orthogonalEdgeStyle;html=1;align=left;verticalAlign=bottom;endArrow=open;endSize=8;strokeColor=#000000;rounded=0;exitX=0.5;exitY=1;exitDx=0;exitDy=0;entryX=0.5;entryY=0;entryDx=0;entryDy=0;" parent="1" source="Kh3jKs6r-VNOBaE9r75T-230" target="Kh3jKs6r-VNOBaE9r75T-232" edge="1">
          <mxGeometry x="-1" relative="1" as="geometry">
            <mxPoint x="1020" y="390" as="targetPoint" />
            <mxPoint x="920" y="390" as="sourcePoint" />
          </mxGeometry>
        </mxCell>
        <mxCell id="Kh3jKs6r-VNOBaE9r75T-248" value="" style="edgeStyle=orthogonalEdgeStyle;html=1;align=left;verticalAlign=bottom;endArrow=open;endSize=8;strokeColor=#000000;rounded=0;exitX=0.5;exitY=1;exitDx=0;exitDy=0;entryX=0.5;entryY=0;entryDx=0;entryDy=0;" parent="1" source="Kh3jKs6r-VNOBaE9r75T-230" target="Kh3jKs6r-VNOBaE9r75T-234" edge="1">
          <mxGeometry x="-1" relative="1" as="geometry">
            <mxPoint x="1280" y="360" as="targetPoint" />
            <mxPoint x="1180" y="360" as="sourcePoint" />
          </mxGeometry>
        </mxCell>
        <mxCell id="Kh3jKs6r-VNOBaE9r75T-249" value="Input valide?" style="rhombus;whiteSpace=wrap;html=1;" parent="1" vertex="1">
          <mxGeometry x="890" y="480" width="80" height="40" as="geometry" />
        </mxCell>
        <mxCell id="Kh3jKs6r-VNOBaE9r75T-250" value="Ja" style="edgeStyle=orthogonalEdgeStyle;html=1;align=left;verticalAlign=bottom;endArrow=open;endSize=8;strokeColor=#000000;rounded=0;entryX=0.5;entryY=0;entryDx=0;entryDy=0;" parent="1" source="Kh3jKs6r-VNOBaE9r75T-249" target="Kh3jKs6r-VNOBaE9r75T-257" edge="1">
          <mxGeometry x="-1" relative="1" as="geometry">
            <mxPoint x="1090" y="500" as="targetPoint" />
          </mxGeometry>
        </mxCell>
        <mxCell id="Kh3jKs6r-VNOBaE9r75T-251" value="Nein" style="edgeStyle=orthogonalEdgeStyle;html=1;align=left;verticalAlign=top;endArrow=open;endSize=8;strokeColor=#000000;rounded=0;entryX=0.5;entryY=0;entryDx=0;entryDy=0;exitX=0;exitY=0.5;exitDx=0;exitDy=0;" parent="1" source="Kh3jKs6r-VNOBaE9r75T-249" target="Kh3jKs6r-VNOBaE9r75T-252" edge="1">
          <mxGeometry x="-0.4" relative="1" as="geometry">
            <mxPoint x="930" y="560" as="targetPoint" />
            <mxPoint as="offset" />
          </mxGeometry>
        </mxCell>
        <mxCell id="Kh3jKs6r-VNOBaE9r75T-252" value="Fehler anzeigen" style="rounded=1;whiteSpace=wrap;html=1;shadow=0;comic=0;labelBackgroundColor=none;strokeWidth=1;fontFamily=Verdana;fontSize=12;align=center;arcSize=50;" parent="1" vertex="1">
          <mxGeometry x="780" y="560" width="140" height="40" as="geometry" />
        </mxCell>
        <mxCell id="Kh3jKs6r-VNOBaE9r75T-254" value="" style="edgeStyle=orthogonalEdgeStyle;html=1;align=left;verticalAlign=bottom;endArrow=open;endSize=8;strokeColor=#000000;rounded=0;exitX=0.5;exitY=1;exitDx=0;exitDy=0;" parent="1" source="Kh3jKs6r-VNOBaE9r75T-232" target="Kh3jKs6r-VNOBaE9r75T-249" edge="1">
          <mxGeometry x="-1" relative="1" as="geometry">
            <mxPoint x="870" y="520" as="targetPoint" />
            <mxPoint x="770" y="520" as="sourcePoint" />
          </mxGeometry>
        </mxCell>
        <mxCell id="Kh3jKs6r-VNOBaE9r75T-256" value="" style="edgeStyle=orthogonalEdgeStyle;html=1;align=left;verticalAlign=bottom;endArrow=open;endSize=8;strokeColor=#000000;rounded=0;exitX=0.5;exitY=1;exitDx=0;exitDy=0;entryX=0.5;entryY=0;entryDx=0;entryDy=0;" parent="1" source="Kh3jKs6r-VNOBaE9r75T-234" target="Kh3jKs6r-VNOBaE9r75T-257" edge="1">
          <mxGeometry x="-1" relative="1" as="geometry">
            <mxPoint x="1110" y="480" as="targetPoint" />
            <mxPoint x="1240" y="680" as="sourcePoint" />
            <Array as="points">
              <mxPoint x="1110" y="500" />
              <mxPoint x="1020" y="500" />
            </Array>
          </mxGeometry>
        </mxCell>
        <mxCell id="Kh3jKs6r-VNOBaE9r75T-257" value="" style="rhombus;whiteSpace=wrap;html=1;" parent="1" vertex="1">
          <mxGeometry x="1000" y="640" width="40" height="40" as="geometry" />
        </mxCell>
        <mxCell id="Kh3jKs6r-VNOBaE9r75T-258" value="" style="edgeStyle=orthogonalEdgeStyle;html=1;align=left;verticalAlign=bottom;endArrow=open;endSize=8;strokeColor=#000000;rounded=0;exitX=0.5;exitY=1;exitDx=0;exitDy=0;entryX=0;entryY=0.5;entryDx=0;entryDy=0;" parent="1" source="Kh3jKs6r-VNOBaE9r75T-252" target="Kh3jKs6r-VNOBaE9r75T-257" edge="1">
          <mxGeometry x="-1" relative="1" as="geometry">
            <mxPoint x="960" y="740" as="targetPoint" />
            <mxPoint x="860" y="740" as="sourcePoint" />
          </mxGeometry>
        </mxCell>
        <mxCell id="Kh3jKs6r-VNOBaE9r75T-261" value="" style="edgeStyle=orthogonalEdgeStyle;html=1;align=left;verticalAlign=bottom;endArrow=open;endSize=8;strokeColor=#000000;rounded=0;exitX=1;exitY=0.5;exitDx=0;exitDy=0;entryX=0.5;entryY=0;entryDx=0;entryDy=0;" parent="1" source="Kh3jKs6r-VNOBaE9r75T-230" target="Kh3jKs6r-VNOBaE9r75T-235" edge="1">
          <mxGeometry x="-1" relative="1" as="geometry">
            <mxPoint x="1450" y="310" as="targetPoint" />
            <mxPoint x="1350" y="310" as="sourcePoint" />
          </mxGeometry>
        </mxCell>
        <mxCell id="Kh3jKs6r-VNOBaE9r75T-262" value="Einstellungen aus Cache lÃ¶schen" style="rounded=1;whiteSpace=wrap;html=1;shadow=0;comic=0;labelBackgroundColor=none;strokeWidth=1;fontFamily=Verdana;fontSize=12;align=center;arcSize=50;" parent="1" vertex="1">
          <mxGeometry x="1220" y="480" width="140" height="40" as="geometry" />
        </mxCell>
        <mxCell id="Kh3jKs6r-VNOBaE9r75T-263" value="" style="edgeStyle=orthogonalEdgeStyle;html=1;align=left;verticalAlign=bottom;endArrow=open;endSize=8;strokeColor=#000000;rounded=0;exitX=0.5;exitY=1;exitDx=0;exitDy=0;entryX=0.5;entryY=0;entryDx=0;entryDy=0;" parent="1" source="Kh3jKs6r-VNOBaE9r75T-235" target="Kh3jKs6r-VNOBaE9r75T-262" edge="1">
          <mxGeometry x="-1" relative="1" as="geometry">
            <mxPoint x="1630" y="430" as="targetPoint" />
            <mxPoint x="1530" y="430" as="sourcePoint" />
          </mxGeometry>
        </mxCell>
        <mxCell id="Kh3jKs6r-VNOBaE9r75T-264" value="" style="edgeStyle=orthogonalEdgeStyle;html=1;align=left;verticalAlign=bottom;endArrow=open;endSize=8;strokeColor=#000000;rounded=0;exitX=0.5;exitY=1;exitDx=0;exitDy=0;entryX=1;entryY=0.5;entryDx=0;entryDy=0;" parent="1" source="Kh3jKs6r-VNOBaE9r75T-262" target="Kh3jKs6r-VNOBaE9r75T-257" edge="1">
          <mxGeometry x="-1" relative="1" as="geometry">
            <mxPoint x="1560" y="690" as="targetPoint" />
            <mxPoint x="1460" y="690" as="sourcePoint" />
          </mxGeometry>
        </mxCell>
        <mxCell id="Kh3jKs6r-VNOBaE9r75T-265" value="" style="edgeStyle=orthogonalEdgeStyle;html=1;align=left;verticalAlign=bottom;endArrow=open;endSize=8;strokeColor=#000000;rounded=0;exitX=0.5;exitY=1;exitDx=0;exitDy=0;entryX=0.5;entryY=0;entryDx=0;entryDy=0;" parent="1" source="Kh3jKs6r-VNOBaE9r75T-257" target="Kh3jKs6r-VNOBaE9r75T-243" edge="1">
          <mxGeometry x="-1" relative="1" as="geometry">
            <mxPoint x="950" y="740" as="targetPoint" />
            <mxPoint x="850" y="740" as="sourcePoint" />
          </mxGeometry>
        </mxCell>
        <mxCell id="Kh3jKs6r-VNOBaE9r75T-266" value="B" style="ellipse;whiteSpace=wrap;html=1;aspect=fixed;" parent="1" vertex="1">
          <mxGeometry x="880" y="240" width="40" height="40" as="geometry" />
        </mxCell>
        <mxCell id="Kh3jKs6r-VNOBaE9r75T-267" value="" style="edgeStyle=orthogonalEdgeStyle;html=1;align=left;verticalAlign=bottom;endArrow=open;endSize=8;strokeColor=#000000;rounded=0;exitX=1;exitY=0.5;exitDx=0;exitDy=0;" parent="1" source="Kh3jKs6r-VNOBaE9r75T-266" target="Kh3jKs6r-VNOBaE9r75T-226" edge="1">
          <mxGeometry x="-1" relative="1" as="geometry">
            <mxPoint x="860" y="320" as="targetPoint" />
            <mxPoint x="920" y="280" as="sourcePoint" />
          </mxGeometry>
        </mxCell>
        <mxCell id="Kh3jKs6r-VNOBaE9r75T-268" value="B" style="ellipse;whiteSpace=wrap;html=1;aspect=fixed;" parent="1" vertex="1">
          <mxGeometry x="880" y="720" width="40" height="40" as="geometry" />
        </mxCell>
        <mxCell id="Kh3jKs6r-VNOBaE9r75T-271" value="" style="edgeStyle=orthogonalEdgeStyle;html=1;align=left;verticalAlign=bottom;endArrow=open;endSize=8;strokeColor=#000000;rounded=0;exitX=0.5;exitY=1;exitDx=0;exitDy=0;entryX=0;entryY=0.5;entryDx=0;entryDy=0;" parent="1" source="Kh3jKs6r-VNOBaE9r75T-233" target="Kh3jKs6r-VNOBaE9r75T-257" edge="1">
          <mxGeometry x="-1" relative="1" as="geometry">
            <mxPoint x="710" y="560" as="targetPoint" />
            <mxPoint x="610" y="560" as="sourcePoint" />
          </mxGeometry>
        </mxCell>
        <mxCell id="Kh3jKs6r-VNOBaE9r75T-361" value="Nicht gespeicherte Ãnderungen?" style="rhombus;whiteSpace=wrap;html=1;" parent="1" vertex="1">
          <mxGeometry x="980" y="800" width="80" height="40" as="geometry" />
        </mxCell>
        <mxCell id="Kh3jKs6r-VNOBaE9r75T-362" value="Ja" style="edgeStyle=orthogonalEdgeStyle;html=1;align=left;verticalAlign=bottom;endArrow=open;endSize=8;strokeColor=#000000;rounded=0;" parent="1" source="Kh3jKs6r-VNOBaE9r75T-361" target="Kh3jKs6r-VNOBaE9r75T-364" edge="1">
          <mxGeometry relative="1" as="geometry">
            <mxPoint x="1140" y="900" as="targetPoint" />
            <mxPoint as="offset" />
          </mxGeometry>
        </mxCell>
        <mxCell id="Kh3jKs6r-VNOBaE9r75T-363" value="Nein" style="edgeStyle=orthogonalEdgeStyle;html=1;align=left;verticalAlign=top;endArrow=open;endSize=8;strokeColor=#000000;rounded=0;" parent="1" source="Kh3jKs6r-VNOBaE9r75T-361" target="Kh3jKs6r-VNOBaE9r75T-371" edge="1">
          <mxGeometry x="-0.8747" relative="1" as="geometry">
            <mxPoint x="1040" y="1000" as="targetPoint" />
            <mxPoint as="offset" />
          </mxGeometry>
        </mxCell>
        <mxCell id="Kh3jKs6r-VNOBaE9r75T-364" value="Warnung anzeigen" style="rounded=1;whiteSpace=wrap;html=1;shadow=0;comic=0;labelBackgroundColor=none;strokeWidth=1;fontFamily=Verdana;fontSize=12;align=center;arcSize=50;" parent="1" vertex="1">
          <mxGeometry x="950" y="880" width="140" height="40" as="geometry" />
        </mxCell>
        <mxCell id="Kh3jKs6r-VNOBaE9r75T-365" value="Ãnderungen speichern?" style="rhombus;whiteSpace=wrap;html=1;" parent="1" vertex="1">
          <mxGeometry x="980" y="960" width="80" height="40" as="geometry" />
        </mxCell>
        <mxCell id="Kh3jKs6r-VNOBaE9r75T-366" value="Ja" style="edgeStyle=orthogonalEdgeStyle;html=1;align=left;verticalAlign=bottom;endArrow=open;endSize=8;strokeColor=#000000;rounded=0;" parent="1" source="Kh3jKs6r-VNOBaE9r75T-365" target="Kh3jKs6r-VNOBaE9r75T-369" edge="1">
          <mxGeometry x="-0.3333" relative="1" as="geometry">
            <mxPoint x="740" y="930" as="targetPoint" />
            <mxPoint as="offset" />
          </mxGeometry>
        </mxCell>
        <mxCell id="Kh3jKs6r-VNOBaE9r75T-368" value="" style="edgeStyle=orthogonalEdgeStyle;html=1;align=left;verticalAlign=bottom;endArrow=open;endSize=8;strokeColor=#000000;rounded=0;" parent="1" source="Kh3jKs6r-VNOBaE9r75T-364" target="Kh3jKs6r-VNOBaE9r75T-365" edge="1">
          <mxGeometry x="-1" relative="1" as="geometry">
            <mxPoint x="1520" y="770" as="targetPoint" />
            <mxPoint x="1100" y="940" as="sourcePoint" />
          </mxGeometry>
        </mxCell>
        <mxCell id="Kh3jKs6r-VNOBaE9r75T-369" value="Einstellungen im Cache speichern" style="rounded=1;whiteSpace=wrap;html=1;shadow=0;comic=0;labelBackgroundColor=none;strokeWidth=1;fontFamily=Verdana;fontSize=12;align=center;arcSize=50;" parent="1" vertex="1">
          <mxGeometry x="950" y="1040" width="140" height="40" as="geometry" />
        </mxCell>
        <mxCell id="Kh3jKs6r-VNOBaE9r75T-370" value="Ãnderungen verwerfen" style="rounded=1;whiteSpace=wrap;html=1;shadow=0;comic=0;labelBackgroundColor=none;strokeWidth=1;fontFamily=Verdana;fontSize=12;align=center;arcSize=50;" parent="1" vertex="1">
          <mxGeometry x="1110" y="960" width="140" height="40" as="geometry" />
        </mxCell>
        <mxCell id="Kh3jKs6r-VNOBaE9r75T-371" value="" style="rhombus;whiteSpace=wrap;html=1;" parent="1" vertex="1">
          <mxGeometry x="1160" y="800" width="40" height="40" as="geometry" />
        </mxCell>
        <mxCell id="Kh3jKs6r-VNOBaE9r75T-375" value="" style="edgeStyle=orthogonalEdgeStyle;html=1;align=left;verticalAlign=bottom;endArrow=open;endSize=8;strokeColor=#000000;rounded=0;" parent="1" source="Kh3jKs6r-VNOBaE9r75T-370" target="Kh3jKs6r-VNOBaE9r75T-371" edge="1">
          <mxGeometry x="-1" relative="1" as="geometry">
            <mxPoint x="1170" y="1070" as="targetPoint" />
            <mxPoint x="1090" y="980" as="sourcePoint" />
          </mxGeometry>
        </mxCell>
        <mxCell id="Kh3jKs6r-VNOBaE9r75T-378" value="B" style="ellipse;whiteSpace=wrap;html=1;aspect=fixed;" parent="1" vertex="1">
          <mxGeometry x="1000" y="1120" width="40" height="40" as="geometry" />
        </mxCell>
        <mxCell id="Kh3jKs6r-VNOBaE9r75T-379" value="" style="edgeStyle=orthogonalEdgeStyle;html=1;align=left;verticalAlign=bottom;endArrow=open;endSize=8;strokeColor=#000000;rounded=0;" parent="1" source="Kh3jKs6r-VNOBaE9r75T-369" target="Kh3jKs6r-VNOBaE9r75T-378" edge="1">
          <mxGeometry x="-1" relative="1" as="geometry">
            <mxPoint x="800" y="1070" as="targetPoint" />
            <mxPoint x="700" y="1070" as="sourcePoint" />
          </mxGeometry>
        </mxCell>
        <mxCell id="Kh3jKs6r-VNOBaE9r75T-383" value="" style="edgeStyle=orthogonalEdgeStyle;html=1;align=left;verticalAlign=bottom;endArrow=open;endSize=8;strokeColor=#000000;rounded=0;" parent="1" source="Kh3jKs6r-VNOBaE9r75T-371" edge="1">
          <mxGeometry x="-1" relative="1" as="geometry">
            <mxPoint x="1280" y="820" as="targetPoint" />
            <mxPoint x="1370" y="770" as="sourcePoint" />
          </mxGeometry>
        </mxCell>
        <mxCell id="Kh3jKs6r-VNOBaE9r75T-384" value="Nein" style="edgeStyle=orthogonalEdgeStyle;html=1;align=left;verticalAlign=bottom;endArrow=open;endSize=8;strokeColor=#000000;rounded=0;exitX=1;exitY=0.5;exitDx=0;exitDy=0;" parent="1" source="Kh3jKs6r-VNOBaE9r75T-365" target="Kh3jKs6r-VNOBaE9r75T-370" edge="1">
          <mxGeometry x="-1" relative="1" as="geometry">
            <mxPoint x="1080" y="1030" as="targetPoint" />
            <mxPoint as="offset" />
            <mxPoint x="1140" y="1030" as="sourcePoint" />
          </mxGeometry>
        </mxCell>
        <mxCell id="5" value="" style="rhombus;whiteSpace=wrap;html=1;" parent="1" vertex="1">
          <mxGeometry x="370.03" y="1240" width="40" height="40" as="geometry" />
        </mxCell>
        <mxCell id="6" value="" style="shape=mxgraph.bpmn.shape;html=1;verticalLabelPosition=bottom;labelBackgroundColor=#ffffff;verticalAlign=top;perimeter=ellipsePerimeter;outline=end;symbol=terminate;rounded=0;shadow=0;comic=0;strokeWidth=1;fontFamily=Verdana;fontSize=12;align=center;" parent="1" vertex="1">
          <mxGeometry x="370.0300000000001" y="1400" width="40" height="40" as="geometry" />
        </mxCell>
        <mxCell id="7" value="" style="edgeStyle=orthogonalEdgeStyle;html=1;align=left;verticalAlign=bottom;endArrow=open;endSize=8;strokeColor=#000000;rounded=0;exitX=0.5;exitY=1;exitDx=0;exitDy=0;entryX=0.5;entryY=0;entryDx=0;entryDy=0;" parent="1" source="5" target="Kh3jKs6r-VNOBaE9r75T-198" edge="1">
          <mxGeometry x="-1" relative="1" as="geometry">
            <mxPoint x="390" y="1345" as="targetPoint" />
            <mxPoint x="600" y="1350" as="sourcePoint" />
          </mxGeometry>
        </mxCell>
        <mxCell id="8" value="" style="edgeStyle=orthogonalEdgeStyle;html=1;align=left;verticalAlign=bottom;endArrow=open;endSize=8;strokeColor=#000000;rounded=0;exitX=0.5;exitY=1;exitDx=0;exitDy=0;entryX=0.5;entryY=0;entryDx=0;entryDy=0;" parent="1" source="Kh3jKs6r-VNOBaE9r75T-198" target="6" edge="1">
          <mxGeometry x="-1" relative="1" as="geometry">
            <mxPoint x="400" y="1330" as="targetPoint" />
            <mxPoint x="400" y="1290" as="sourcePoint" />
          </mxGeometry>
        </mxCell>
        <mxCell id="9" value="A" style="ellipse;whiteSpace=wrap;html=1;aspect=fixed;" parent="1" vertex="1">
          <mxGeometry x="1280" y="800" width="40" height="40" as="geometry" />
        </mxCell>
        <mxCell id="Nd0YQQq20hHKod8yLaoM-9" value="Einstellungen speichern" style="rounded=1;whiteSpace=wrap;html=1;shadow=0;comic=0;labelBackgroundColor=none;strokeWidth=1;fontFamily=Verdana;fontSize=12;align=center;arcSize=50;" vertex="1" parent="1">
          <mxGeometry x="1400" y="400" width="140" height="40" as="geometry" />
        </mxCell>
        <mxCell id="Nd0YQQq20hHKod8yLaoM-10" value="" style="edgeStyle=orthogonalEdgeStyle;html=1;align=left;verticalAlign=bottom;endArrow=open;endSize=8;strokeColor=#000000;rounded=0;exitX=1;exitY=0.5;exitDx=0;exitDy=0;entryX=0.5;entryY=0;entryDx=0;entryDy=0;" edge="1" parent="1" source="Kh3jKs6r-VNOBaE9r75T-230" target="Nd0YQQq20hHKod8yLaoM-9">
          <mxGeometry x="-1" relative="1" as="geometry">
            <mxPoint x="1300" y="410" as="targetPoint" />
            <mxPoint x="1070" y="350" as="sourcePoint" />
          </mxGeometry>
        </mxCell>
        <mxCell id="Nd0YQQq20hHKod8yLaoM-11" value="" style="edgeStyle=orthogonalEdgeStyle;html=1;align=left;verticalAlign=bottom;endArrow=open;endSize=8;strokeColor=#000000;rounded=0;exitX=0.5;exitY=1;exitDx=0;exitDy=0;entryX=1;entryY=0.5;entryDx=0;entryDy=0;" edge="1" parent="1" source="Nd0YQQq20hHKod8yLaoM-9" target="Kh3jKs6r-VNOBaE9r75T-257">
          <mxGeometry x="-1" relative="1" as="geometry">
            <mxPoint x="1620" y="750" as="targetPoint" />
            <mxPoint x="1210" y="690" as="sourcePoint" />
          </mxGeometry>
        </mxCell>
        <mxCell id="Nd0YQQq20hHKod8yLaoM-13" value="" style="edgeStyle=orthogonalEdgeStyle;html=1;align=left;verticalAlign=bottom;endArrow=open;endSize=8;strokeColor=#000000;rounded=0;exitX=0.5;exitY=1;exitDx=0;exitDy=0;" edge="1" parent="1" source="Kh3jKs6r-VNOBaE9r75T-157" target="Nd0YQQq20hHKod8yLaoM-12">
          <mxGeometry x="-1" relative="1" as="geometry">
            <mxPoint x="300" y="200" as="targetPoint" />
            <mxPoint x="300" y="80" as="sourcePoint" />
          </mxGeometry>
        </mxCell>
        <mxCell id="Nd0YQQq20hHKod8yLaoM-12" value="" style="rhombus;whiteSpace=wrap;html=1;" vertex="1" parent="1">
          <mxGeometry x="280.0300000000001" y="120" width="40" height="40" as="geometry" />
        </mxCell>
      </root>
    </mxGraphModel>
  </diagram>
</mxfile>
